<svg xmlns="http://www.w3.org/2000/svg" xmlns:xlink="http://www.w3.org/1999/xlink" version="1.1" data-diagram-type="ACTIVITY" style="width:1701px;height:1271px;background:#FFFFFF;" width="1701px" height="1271px" viewBox="0 0 1701 1271" zoomAndPan="magnify" preserveAspectRatio="none" contentStyleType="text/css"><?plantuml 1.2026.9beta4?><defs/><g font-family="sans-serif" lengthAdjust="spacing"><g class="title" data-source-line="1"><text x="677.658" y="32.995" fill="#000" font-size="14" textLength="344.654" font-weight="700">1. Главный алгоритм моделирования СМО</text></g><rect x="20" y="54.57" width="1654.969" height="18.625" fill="none" style="stroke:none;"/><ellipse cx="126.08" cy="88.195" rx="10" ry="10" fill="#222" style="stroke:#222;stroke-width:1;"/><rect x="32.371" y="118.195" width="187.417" height="72.383" fill="#F1F1F1" style="stroke:#181818;stroke-width:0.5;" rx="12.5" ry="12.5"/><text x="42.371" y="142.119" fill="#000" font-size="15" textLength="90.469">Установить</text><text x="42.371" y="159.58" fill="#000" font-size="15" textLength="86.733">модельное</text><text x="129.104" y="159.58" fill="#000" font-size="15"> </text><text x="133.873" y="159.58" fill="#000" font-size="15" textLength="47.93">время</text><text x="181.802" y="159.58" fill="#000" font-size="15"> </text><text x="186.57" y="159.58" fill="#000" font-size="15">t</text><text x="192.452" y="159.58" fill="#000" font-size="15"> </text><text x="197.22" y="159.58" fill="#000" font-size="15">=</text><text x="42.371" y="177.041" fill="#000" font-size="15">0</text><rect x="40.387" y="210.578" width="171.384" height="54.922" fill="#F1F1F1" style="stroke:#181818;stroke-width:0.5;" rx="12.5" ry="12.5"/><text x="50.387" y="234.501" fill="#000" font-size="15" textLength="55.95">Задать</text><text x="106.337" y="234.501" fill="#000" font-size="15"> </text><text x="111.105" y="234.501" fill="#000" font-size="15" textLength="90.667">количество</text><text x="50.387" y="251.962" fill="#000" font-size="15" textLength="61.414">заказов</text><text x="111.801" y="251.962" fill="#000" font-size="15"> </text><text x="116.569" y="251.962" fill="#000" font-size="15">N</text><rect x="28.299" y="680.461" width="195.562" height="72.383" fill="#F1F1F1" style="stroke:#181818;stroke-width:0.5;" rx="12.5" ry="12.5"/><text x="38.299" y="704.384" fill="#000" font-size="15" textLength="84.06">Перевести</text><text x="122.359" y="704.384" fill="#000" font-size="15"> </text><text x="127.127" y="704.384" fill="#000" font-size="15" textLength="86.733">модельное</text><text x="38.299" y="721.845" fill="#000" font-size="15" textLength="47.93">время</text><text x="38.299" y="739.306" fill="#000" font-size="15" textLength="18.999">на</text><text x="57.298" y="739.306" fill="#000" font-size="15"> </text><text x="62.066" y="739.306" fill="#000" font-size="15" textLength="47.93">время</text><text x="109.996" y="739.306" fill="#000" font-size="15"> </text><text x="114.764" y="739.306" fill="#000" font-size="15" textLength="66.028">события</text><polygon points="59.305,783.281,192.854,783.281,204.854,800.742,192.854,818.203,59.305,818.203,47.305,800.742,59.305,783.281" fill="#F1F1F1" style="stroke:#181818;stroke-width:0.5;stroke-linejoin:miter;stroke-miterlimit:10;"/><text x="59.305" y="797.205" fill="#000" font-size="15" textLength="28.718">Тип</text><text x="88.023" y="797.205" fill="#000" font-size="15"> </text><text x="92.791" y="797.205" fill="#000" font-size="15">=</text><text x="59.305" y="814.666" fill="#000" font-size="15" textLength="133.55">ORDER_ARRIVAL?</text><text x="25" y="796.969" fill="#000" font-size="16" textLength="22.305">Да</text><text x="204.854" y="796.969" fill="#000" font-size="16" textLength="31.195">Нет</text><polygon points="126.08,920.586,138.08,932.586,126.08,944.586,114.08,932.586,126.08,920.586" fill="#F1F1F1" style="stroke:#181818;stroke-width:0.5;stroke-linejoin:miter;stroke-miterlimit:10;"/><ellipse cx="126.08" cy="1239.813" rx="11" ry="11" fill="none" style="stroke:#222;stroke-width:1;"/><ellipse cx="126.08" cy="1239.813" rx="6" ry="6" fill="#222" style="stroke:#222;stroke-width:1;"/><line x1="20" y1="54.57" x2="20" y2="1250.813" style="stroke:#000;stroke-width:1.5;"/><rect x="258.582" y="285.5" width="167.693" height="89.844" fill="#F1F1F1" style="stroke:#181818;stroke-width:0.5;" rx="12.5" ry="12.5"/><text x="268.582" y="309.423" fill="#000" font-size="15" textLength="64.768">Создать</text><text x="333.35" y="309.423" fill="#000" font-size="15"> </text><text x="338.118" y="309.423" fill="#000" font-size="15" textLength="78.157">источник,</text><text x="268.582" y="326.884" fill="#000" font-size="15" textLength="54.47">буфер,</text><text x="268.582" y="344.345" fill="#000" font-size="15" textLength="66.431">серверы</text><text x="335.012" y="344.345" fill="#000" font-size="15"> </text><text x="339.781" y="344.345" fill="#000" font-size="15">и</text><text x="268.582" y="361.806" fill="#000" font-size="15" textLength="95.596">диспетчеры</text><rect x="247.05" y="395.344" width="190.757" height="37.461" fill="#F1F1F1" style="stroke:#181818;stroke-width:0.5;" rx="12.5" ry="12.5"/><text x="257.05" y="419.267" fill="#000" font-size="15" textLength="76.655">Обнулить</text><text x="333.705" y="419.267" fill="#000" font-size="15"> </text><text x="338.473" y="419.267" fill="#000" font-size="15" textLength="89.333">статистику</text><line x1="241.05" y1="54.57" x2="241.05" y2="1250.813" style="stroke:#000;stroke-width:1.5;"/><rect x="524.503" y="452.805" width="145.588" height="72.383" fill="#F1F1F1" style="stroke:#181818;stroke-width:0.5;" rx="12.5" ry="12.5"/><text x="534.503" y="476.728" fill="#000" font-size="15" textLength="121.26">Запланировать</text><text x="534.503" y="494.189" fill="#000" font-size="15" textLength="58.989">первый</text><text x="534.503" y="511.65" fill="#000" font-size="15" textLength="125.588">ORDER_ARRIVAL</text><rect x="506.024" y="605.539" width="182.546" height="54.922" fill="#F1F1F1" style="stroke:#181818;stroke-width:0.5;" rx="12.5" ry="12.5"/><text x="516.024" y="629.462" fill="#000" font-size="15" textLength="64.556">Извлечь</text><text x="580.58" y="629.462" fill="#000" font-size="15"> </text><text x="585.348" y="629.462" fill="#000" font-size="15" textLength="93.223">ближайшее</text><text x="516.024" y="646.923" fill="#000" font-size="15" textLength="66.233">событие</text><polygon points="518.002,545.188,676.593,545.188,688.593,557.188,676.593,569.188,518.002,569.188,506.002,557.188,518.002,545.188" fill="#F1F1F1" style="stroke:#181818;stroke-width:0.5;stroke-linejoin:miter;stroke-miterlimit:10;"/><text x="601.298" y="584.039" fill="#000" font-size="16" textLength="22.305">Да</text><text x="518.002" y="562.38" fill="#000" font-size="15" textLength="158.591">Календарь не пуст?</text><text x="474.807" y="553.414" fill="#000" font-size="16" textLength="31.195">Нет</text><line x1="441.807" y1="54.57" x2="441.807" y2="1250.813" style="stroke:#000;stroke-width:1.5;"/><path d="M909.203,838.203 L909.203,867.141 L889.203,871.141 L909.203,875.141 L909.203,904.078 A0,0 0 0 0 909.203,904.078 L1109.593,904.078 A0,0 0 0 0 1109.593,904.078 L1109.593,848.203 L1099.593,838.203 L909.203,838.203 A0,0 0 0 0 909.203,838.203" style="stroke:#181818;stroke-width:0.5;" fill="#FEFFDD"/><path d="M1099.593,838.203 L1099.593,848.203 L1109.593,848.203 L1099.593,838.203" style="stroke:#181818;stroke-width:0.5;" fill="#FEFFDD"/><text x="915.203" y="858.055" fill="#000" font-size="16" textLength="96.188">Подробный</text><text x="1011.39" y="858.055" fill="#000" font-size="16"> </text><text x="1016.476" y="858.055" fill="#000" font-size="16" textLength="78.117">Flowchart</text><text x="915.203" y="876.68" fill="#000" font-size="16" textLength="32.211">№2:</text><text x="915.203" y="895.305" fill="#000" font-size="16" textLength="133.961">ORDER_ARRIVAL</text><rect x="709.593" y="843.68" width="179.609" height="54.922" fill="#F1F1F1" style="stroke:#181818;stroke-width:0.5;" rx="12.5" ry="12.5"/><text x="719.593" y="867.603" fill="#000" font-size="15" textLength="93.706">Обработать</text><text x="719.593" y="885.064" fill="#000" font-size="15" textLength="102.253">поступление</text><text x="821.847" y="885.064" fill="#000" font-size="15"> </text><text x="826.615" y="885.064" fill="#000" font-size="15" textLength="52.588">заказа</text><path d="M1275.057,841.457 L1275.057,870.395 L1255.057,874.395 L1275.057,878.395 L1275.057,907.332 A0,0 0 0 0 1275.057,907.332 L1475.448,907.332 A0,0 0 0 0 1475.448,907.332 L1475.448,851.457 L1465.448,841.457 L1275.057,841.457 A0,0 0 0 0 1275.057,841.457" style="stroke:#181818;stroke-width:0.5;" fill="#FEFFDD"/><path d="M1465.448,841.457 L1465.448,851.457 L1475.448,851.457 L1465.448,841.457" style="stroke:#181818;stroke-width:0.5;" fill="#FEFFDD"/><text x="1281.057" y="861.309" fill="#000" font-size="16" textLength="96.188">Подробный</text><text x="1377.245" y="861.309" fill="#000" font-size="16"> </text><text x="1382.331" y="861.309" fill="#000" font-size="16" textLength="78.117">Flowchart</text><text x="1281.057" y="879.934" fill="#000" font-size="16" textLength="32.211">№3:</text><text x="1281.057" y="898.559" fill="#000" font-size="16" textLength="174.773">SERVICE_COMPLETED</text><rect x="1120.045" y="838.203" width="135.012" height="72.383" fill="#F1F1F1" style="stroke:#181818;stroke-width:0.5;" rx="12.5" ry="12.5"/><text x="1130.045" y="862.126" fill="#000" font-size="15" textLength="93.706">Обработать</text><text x="1130.045" y="879.587" fill="#000" font-size="15" textLength="96.497">завершение</text><text x="1130.045" y="897.048" fill="#000" font-size="15" textLength="115.012">обслуживания</text><line x1="703.593" y1="54.57" x2="703.593" y2="1250.813" style="stroke:#000;stroke-width:1.5;"/><rect x="1489.216" y="986.586" width="177.441" height="54.922" fill="#F1F1F1" style="stroke:#181818;stroke-width:0.5;" rx="12.5" ry="12.5"/><text x="1499.216" y="1010.509" fill="#000" font-size="15" textLength="88.85">Рассчитать</text><text x="1499.216" y="1027.97" fill="#000" font-size="15" textLength="99.338">вероятность</text><text x="1598.555" y="1027.97" fill="#000" font-size="15"> </text><text x="1603.323" y="1027.97" fill="#000" font-size="15" textLength="53.335">отказа</text><rect x="1488.312" y="1061.508" width="179.25" height="72.383" fill="#F1F1F1" style="stroke:#181818;stroke-width:0.5;" rx="12.5" ry="12.5"/><text x="1498.312" y="1085.431" fill="#000" font-size="15" textLength="88.85">Рассчитать</text><text x="1587.162" y="1085.431" fill="#000" font-size="15"> </text><text x="1591.93" y="1085.431" fill="#000" font-size="15" textLength="65.632">среднее</text><text x="1498.312" y="1102.892" fill="#000" font-size="15" textLength="47.93">время</text><text x="1546.242" y="1102.892" fill="#000" font-size="15"> </text><text x="1551.01" y="1102.892" fill="#000" font-size="15" textLength="80.581">ожидания</text><text x="1498.312" y="1120.353" fill="#000" font-size="15">и</text><text x="1508.06" y="1120.353" fill="#000" font-size="15"> </text><text x="1512.828" y="1120.353" fill="#000" font-size="15" textLength="115.012">обслуживания</text><rect x="1486.448" y="1153.891" width="182.979" height="54.922" fill="#F1F1F1" style="stroke:#181818;stroke-width:0.5;" rx="12.5" ry="12.5"/><text x="1496.448" y="1177.814" fill="#000" font-size="15" textLength="88.85">Рассчитать</text><text x="1585.298" y="1177.814" fill="#000" font-size="15"> </text><text x="1590.066" y="1177.814" fill="#000" font-size="15" textLength="69.36">загрузку</text><text x="1496.448" y="1195.275" fill="#000" font-size="15" textLength="72.605">серверов</text><line x1="1480.448" y1="54.57" x2="1480.448" y2="1250.813" style="stroke:#000;stroke-width:1.5;"/><line x1="1673.426" y1="54.57" x2="1673.426" y2="1250.813" style="stroke:#000;stroke-width:1.5;"/><polygon points="1102.045,752.531,1106.045,742.531,1110.045,752.531,1106.045,748.531" fill="#181818" style="stroke:#181818;stroke-width:1;stroke-linejoin:miter;stroke-miterlimit:10;"/><line x1="126.08" y1="98.195" x2="126.08" y2="118.195" style="stroke:#181818;stroke-width:1;"/><polygon points="122.08,108.195,126.08,118.195,130.08,108.195,126.08,112.195" fill="#181818" style="stroke:#181818;stroke-width:1;stroke-linejoin:miter;stroke-miterlimit:10;"/><line x1="126.08" y1="190.578" x2="126.08" y2="210.578" style="stroke:#181818;stroke-width:1;"/><polygon points="122.08,200.578,126.08,210.578,130.08,200.578,126.08,204.578" fill="#181818" style="stroke:#181818;stroke-width:1;stroke-linejoin:miter;stroke-miterlimit:10;"/><line x1="126.08" y1="752.844" x2="126.08" y2="783.281" style="stroke:#181818;stroke-width:1;"/><polygon points="122.08,773.281,126.08,783.281,130.08,773.281,126.08,777.281" fill="#181818" style="stroke:#181818;stroke-width:1;stroke-linejoin:miter;stroke-miterlimit:10;"/><line x1="342.428" y1="375.344" x2="342.428" y2="395.344" style="stroke:#181818;stroke-width:1;"/><polygon points="338.428,385.344,342.428,395.344,346.428,385.344,342.428,389.344" fill="#181818" style="stroke:#181818;stroke-width:1;stroke-linejoin:miter;stroke-miterlimit:10;"/><line x1="597.298" y1="569.188" x2="597.298" y2="605.539" style="stroke:#181818;stroke-width:1;"/><polygon points="593.298,595.539,597.298,605.539,601.298,595.539,597.298,599.539" fill="#181818" style="stroke:#181818;stroke-width:1;stroke-linejoin:miter;stroke-miterlimit:10;"/><line x1="506.002" y1="557.188" x2="460.807" y2="557.188" style="stroke:#181818;stroke-width:1;"/><polygon points="456.807,753.281,460.807,763.281,464.807,753.281,460.807,757.281" fill="#181818" style="stroke:#181818;stroke-width:1;stroke-linejoin:miter;stroke-miterlimit:10;"/><line x1="460.807" y1="557.188" x2="460.807" y2="971.586" style="stroke:#181818;stroke-width:1;"/><line x1="460.807" y1="971.586" x2="1577.937" y2="971.586" style="stroke:#181818;stroke-width:1;"/><line x1="1577.937" y1="971.586" x2="1577.937" y2="986.586" style="stroke:#181818;stroke-width:1;"/><polygon points="1573.937,976.586,1577.937,986.586,1581.937,976.586,1577.937,980.586" fill="#181818" style="stroke:#181818;stroke-width:1;stroke-linejoin:miter;stroke-miterlimit:10;"/><line x1="597.298" y1="525.188" x2="597.298" y2="545.188" style="stroke:#181818;stroke-width:1;"/><polygon points="593.298,535.188,597.298,545.188,601.298,535.188,597.298,539.188" fill="#181818" style="stroke:#181818;stroke-width:1;stroke-linejoin:miter;stroke-miterlimit:10;"/><line x1="1577.937" y1="1041.508" x2="1577.937" y2="1061.508" style="stroke:#181818;stroke-width:1;"/><polygon points="1573.937,1051.508,1577.937,1061.508,1581.937,1051.508,1577.937,1055.508" fill="#181818" style="stroke:#181818;stroke-width:1;stroke-linejoin:miter;stroke-miterlimit:10;"/><line x1="1577.937" y1="1133.891" x2="1577.937" y2="1153.891" style="stroke:#181818;stroke-width:1;"/><polygon points="1573.937,1143.891,1577.937,1153.891,1581.937,1143.891,1577.937,1147.891" fill="#181818" style="stroke:#181818;stroke-width:1;stroke-linejoin:miter;stroke-miterlimit:10;"/><line x1="126.08" y1="265.5" x2="126.08" y2="270.5" style="stroke:#181818;stroke-width:1;"/><line x1="126.08" y1="270.5" x2="342.428" y2="270.5" style="stroke:#181818;stroke-width:1;"/><line x1="342.428" y1="270.5" x2="342.428" y2="285.5" style="stroke:#181818;stroke-width:1;"/><polygon points="338.428,275.5,342.428,285.5,346.428,275.5,342.428,279.5" fill="#181818" style="stroke:#181818;stroke-width:1;stroke-linejoin:miter;stroke-miterlimit:10;"/><line x1="342.428" y1="432.805" x2="342.428" y2="437.805" style="stroke:#181818;stroke-width:1;"/><line x1="342.428" y1="437.805" x2="597.298" y2="437.805" style="stroke:#181818;stroke-width:1;"/><line x1="597.298" y1="437.805" x2="597.298" y2="452.805" style="stroke:#181818;stroke-width:1;"/><polygon points="593.298,442.805,597.298,452.805,601.298,442.805,597.298,446.805" fill="#181818" style="stroke:#181818;stroke-width:1;stroke-linejoin:miter;stroke-miterlimit:10;"/><line x1="597.298" y1="660.461" x2="597.298" y2="665.461" style="stroke:#181818;stroke-width:1;"/><line x1="597.298" y1="665.461" x2="126.08" y2="665.461" style="stroke:#181818;stroke-width:1;"/><line x1="126.08" y1="665.461" x2="126.08" y2="680.461" style="stroke:#181818;stroke-width:1;"/><polygon points="122.08,670.461,126.08,680.461,130.08,670.461,126.08,674.461" fill="#181818" style="stroke:#181818;stroke-width:1;stroke-linejoin:miter;stroke-miterlimit:10;"/><line x1="47.305" y1="800.742" x2="35.305" y2="800.742" style="stroke:#181818;stroke-width:1;"/><line x1="35.305" y1="800.742" x2="35.305" y2="826.934" style="stroke:#181818;stroke-width:1;"/><line x1="35.305" y1="826.934" x2="799.398" y2="826.934" style="stroke:#181818;stroke-width:1;"/><line x1="799.398" y1="826.934" x2="799.398" y2="843.68" style="stroke:#181818;stroke-width:1;"/><polygon points="795.398,833.68,799.398,843.68,803.398,833.68,799.398,837.68" fill="#181818" style="stroke:#181818;stroke-width:1;stroke-linejoin:miter;stroke-miterlimit:10;"/><line x1="204.854" y1="800.742" x2="1187.551" y2="800.742" style="stroke:#181818;stroke-width:1;"/><line x1="1187.551" y1="800.742" x2="1187.551" y2="838.203" style="stroke:#181818;stroke-width:1;"/><polygon points="1183.551,828.203,1187.551,838.203,1191.551,828.203,1187.551,832.203" fill="#181818" style="stroke:#181818;stroke-width:1;stroke-linejoin:miter;stroke-miterlimit:10;"/><line x1="799.398" y1="898.602" x2="799.398" y2="914.586" style="stroke:#181818;stroke-width:1;"/><line x1="799.398" y1="914.586" x2="96.08" y2="914.586" style="stroke:#181818;stroke-width:1;"/><line x1="96.08" y1="914.586" x2="96.08" y2="932.586" style="stroke:#181818;stroke-width:1;"/><line x1="96.08" y1="932.586" x2="114.08" y2="932.586" style="stroke:#181818;stroke-width:1;"/><polygon points="104.08,928.586,114.08,932.586,104.08,936.586,108.08,932.586" fill="#181818" style="stroke:#181818;stroke-width:1;stroke-linejoin:miter;stroke-miterlimit:10;"/><line x1="1187.551" y1="910.586" x2="1187.551" y2="932.586" style="stroke:#181818;stroke-width:1;"/><line x1="1187.551" y1="932.586" x2="138.08" y2="932.586" style="stroke:#181818;stroke-width:1;"/><polygon points="148.08,928.586,138.08,932.586,148.08,936.586,144.08,932.586" fill="#181818" style="stroke:#181818;stroke-width:1;stroke-linejoin:miter;stroke-miterlimit:10;"/><line x1="126.08" y1="944.586" x2="126.08" y2="954.586" style="stroke:#181818;stroke-width:1;"/><line x1="126.08" y1="954.586" x2="1106.045" y2="954.586" style="stroke:#181818;stroke-width:1;"/><line x1="1106.045" y1="557.188" x2="1106.045" y2="954.586" style="stroke:#181818;stroke-width:1;"/><line x1="1106.045" y1="557.188" x2="688.593" y2="557.188" style="stroke:#181818;stroke-width:1;"/><polygon points="698.593,553.188,688.593,557.188,698.593,561.188,694.593,557.188" fill="#181818" style="stroke:#181818;stroke-width:1;stroke-linejoin:miter;stroke-miterlimit:10;"/><line x1="1577.937" y1="1208.813" x2="1577.937" y2="1213.813" style="stroke:#181818;stroke-width:1;"/><line x1="1577.937" y1="1213.813" x2="126.08" y2="1213.813" style="stroke:#181818;stroke-width:1;"/><line x1="126.08" y1="1213.813" x2="126.08" y2="1228.813" style="stroke:#181818;stroke-width:1;"/><polygon points="122.08,1218.813,126.08,1228.813,130.08,1218.813,126.08,1222.813" fill="#181818" style="stroke:#181818;stroke-width:1;stroke-linejoin:miter;stroke-miterlimit:10;"/><text x="60.494" y="69.422" fill="#000" font-size="16" textLength="140.063">SimulationEngine</text><text x="267.006" y="69.422" fill="#000" font-size="16" textLength="148.844">Компоненты СМО</text><text x="513.809" y="69.422" fill="#000" font-size="16" textLength="117.781">EventCalendar</text><text x="1018.989" y="69.422" fill="#000" font-size="16" textLength="146.063">Диспетчеры СМО</text><text x="1527.937" y="69.422" fill="#000" font-size="16" textLength="98">Статистика</text><?plantuml-src fLHTJnD157tVNp6FaX036esXCOR0af2WcDR08zdGBPrOjgGT89e-j9Qa993me55Z5Ap-WMtfsWBTxL-uynVy9PuxkwNbomTDq-vqzjvppxddpYYf2gwOlY_eFLsGJsqAzG6T2Imlw9GYNQMUVaTzGNsAg4C1jdlOZ13fKuZraQ0cVQLZoog_bjwMKt8sHTRDETi5jL3qL4Q-1VxZiPVEkf8xKhqPlNqqzdQtv6ojogpAY-adKvPLoSZDxOAZPD6plGtfkHMhh9oIicRefww16PDWCc2f3yTOwaFp8X3K1js0-Y2gn5CnbKBg9wHro8zJpX76eXeK6CGsHOAwY3Z7jylWuaKAJEWBrdqQu3S4O8ZiWqHx1PXDx7T7g3s35G4LJQBpIK4jNTTxg56Tj7IDdwY4NmRf2IGY0-01qXlnFZCzfXOgrGr1neqrunlZ0rdNcPozutfgpYcuNjOfLHA90sDfE38ifZQ8YnkVbzFpTdfjDfrUN9bT0j1kNc8Uxa4h3m1K6aLLJWkvcGE8GE5d4qAM4VQ1_0bBY1dw3Erjpj0DZcqnOVe5a3Ez3vW0n46XfGyCwG2LXBZ5MuOwCVG2qnsZyU-k8WTx_hZFuxNqaQabSs3x0wK7c84heY55vLrlA0QnO8Rr3JiklUO8ummA-f0QnPR4hOsOCmmR9EthCTdHDFafa-uLbIjASYElp5z8E669ngTMSWGN2iNTzJncNVpU-_XW9WcymjtimNA3nzJTGfdT-yQy_rTBrrm77Bu_Ki9zhS67EipjZUw0VrJrSAWgOwTN5kVijRdbvo-Nx5Vs_4rbNbRcpDHS6tKBp-7K3dLNg7dzc93Ff-8xDcluDCojbWWr8g7y25jXOY2skHMNfjsUYhyySnrp8LovQg2O6zGPDiZYCRwpUNSGOmTEqVywLZZdOlpQu0ETkkD-B6xz0G00?></g></svg>