<svg xmlns="http://www.w3.org/2000/svg" xmlns:xlink="http://www.w3.org/1999/xlink" version="1.1" data-diagram-type="ACTIVITY" style="width:1885px;height:1460px;background:#FFFFFF;" width="1885px" height="1460px" viewBox="0 0 1885 1460" zoomAndPan="magnify" preserveAspectRatio="none" contentStyleType="text/css"><?plantuml 1.2026.9beta4?><defs/><g font-family="sans-serif" lengthAdjust="spacing"><g class="title" data-source-line="1"><text x="769.473" y="32.995" fill="#000" font-size="14" textLength="344.654" font-weight="700">1. Главный алгоритм моделирования СМО</text></g><rect x="20" y="54.57" width="1838.601" height="18.625" fill="none" style="stroke:none;"/><ellipse cx="126.08" cy="88.195" rx="10" ry="10" fill="#222" style="stroke:#222;stroke-width:1;"/><rect x="32.371" y="118.195" width="187.417" height="72.383" fill="#F1F1F1" style="stroke:#181818;stroke-width:0.5;" rx="12.5" ry="12.5"/><text x="42.371" y="142.119" fill="#000" font-size="15" textLength="90.469">Установить</text><text x="42.371" y="159.58" fill="#000" font-size="15" textLength="86.733">модельное</text><text x="129.104" y="159.58" fill="#000" font-size="15"> </text><text x="133.873" y="159.58" fill="#000" font-size="15" textLength="47.93">время</text><text x="181.802" y="159.58" fill="#000" font-size="15"> </text><text x="186.57" y="159.58" fill="#000" font-size="15">t</text><text x="192.452" y="159.58" fill="#000" font-size="15"> </text><text x="197.22" y="159.58" fill="#000" font-size="15">=</text><text x="42.371" y="177.041" fill="#000" font-size="15">0</text><rect x="53.157" y="210.578" width="145.845" height="72.383" fill="#F1F1F1" style="stroke:#181818;stroke-width:0.5;" rx="12.5" ry="12.5"/><text x="63.157" y="234.501" fill="#000" font-size="15" textLength="55.95">Задать</text><text x="119.107" y="234.501" fill="#000" font-size="15"> </text><text x="123.875" y="234.501" fill="#000" font-size="15" textLength="49.138">лимит</text><text x="173.013" y="234.501" fill="#000" font-size="15"> </text><text x="177.781" y="234.501" fill="#000" font-size="15">N</text><text x="63.157" y="251.962" fill="#000" font-size="15" textLength="115.078">генерируемых</text><text x="63.157" y="269.423" fill="#000" font-size="15" textLength="61.414">заказов</text><rect x="46.364" y="842.688" width="159.431" height="89.844" fill="#F1F1F1" style="stroke:#181818;stroke-width:0.5;" rx="12.5" ry="12.5"/><text x="56.364" y="866.611" fill="#000" font-size="15" textLength="90.469">Установить</text><text x="56.364" y="884.072" fill="#000" font-size="15" textLength="86.733">модельное</text><text x="143.097" y="884.072" fill="#000" font-size="15"> </text><text x="147.865" y="884.072" fill="#000" font-size="15" textLength="47.93">время</text><text x="56.364" y="901.533" fill="#000" font-size="15" textLength="60.52">равным</text><text x="116.884" y="901.533" fill="#000" font-size="15"> </text><text x="121.652" y="901.533" fill="#000" font-size="15" textLength="67.69">времени</text><text x="56.364" y="918.994" fill="#000" font-size="15" textLength="66.028">события</text><polygon points="59.305,954.238,192.854,954.238,204.854,971.699,192.854,989.16,59.305,989.16,47.305,971.699,59.305,954.238" fill="#F1F1F1" style="stroke:#181818;stroke-width:0.5;stroke-linejoin:miter;stroke-miterlimit:10;"/><text x="59.305" y="968.162" fill="#000" font-size="15" textLength="28.718">Тип</text><text x="88.023" y="968.162" fill="#000" font-size="15"> </text><text x="92.791" y="968.162" fill="#000" font-size="15" textLength="66.028">события</text><text x="158.819" y="968.162" fill="#000" font-size="15"> </text><text x="163.587" y="968.162" fill="#000" font-size="15">=</text><text x="59.305" y="985.623" fill="#000" font-size="15" textLength="133.55">ORDER_ARRIVAL?</text><text x="25" y="967.926" fill="#000" font-size="16" textLength="22.305">Да</text><text x="204.854" y="967.926" fill="#000" font-size="16" textLength="174.773">SERVICE_COMPLETED</text><polygon points="126.08,1091.543,138.08,1103.543,126.08,1115.543,114.08,1103.543,126.08,1091.543" fill="#F1F1F1" style="stroke:#181818;stroke-width:0.5;stroke-linejoin:miter;stroke-miterlimit:10;"/><ellipse cx="126.08" cy="1428.23" rx="11" ry="11" fill="none" style="stroke:#222;stroke-width:1;"/><ellipse cx="126.08" cy="1428.23" rx="6" ry="6" fill="#222" style="stroke:#222;stroke-width:1;"/><line x1="20" y1="54.57" x2="20" y2="1439.23" style="stroke:#000;stroke-width:1.5;"/><rect x="400.999" y="302.961" width="177.441" height="89.844" fill="#F1F1F1" style="stroke:#181818;stroke-width:0.5;" rx="12.5" ry="12.5"/><text x="410.999" y="326.884" fill="#000" font-size="15" textLength="64.768">Создать</text><text x="475.767" y="326.884" fill="#000" font-size="15"> </text><text x="480.535" y="326.884" fill="#000" font-size="15" textLength="87.905">источники,</text><text x="410.999" y="344.345" fill="#000" font-size="15" textLength="83.87">кольцевой</text><text x="494.869" y="344.345" fill="#000" font-size="15"> </text><text x="499.637" y="344.345" fill="#000" font-size="15" textLength="54.47">буфер,</text><text x="410.999" y="361.806" fill="#000" font-size="15" textLength="66.431">серверы</text><text x="477.43" y="361.806" fill="#000" font-size="15"> </text><text x="482.198" y="361.806" fill="#000" font-size="15">и</text><text x="410.999" y="379.267" fill="#000" font-size="15" textLength="95.596">диспетчеры</text><rect x="394.341" y="412.805" width="190.757" height="37.461" fill="#F1F1F1" style="stroke:#181818;stroke-width:0.5;" rx="12.5" ry="12.5"/><text x="404.341" y="436.728" fill="#000" font-size="15" textLength="76.655">Обнулить</text><text x="480.997" y="436.728" fill="#000" font-size="15"> </text><text x="485.765" y="436.728" fill="#000" font-size="15" textLength="89.333">статистику</text><rect x="390.628" y="470.266" width="198.184" height="107.305" fill="#F1F1F1" style="stroke:#181818;stroke-width:0.5;" rx="12.5" ry="12.5"/><text x="400.628" y="494.189" fill="#000" font-size="15" textLength="99.792">OrderSource:</text><text x="400.628" y="511.65" fill="#000" font-size="15" textLength="117.971">сгенерировать</text><text x="400.628" y="529.111" fill="#000" font-size="15" textLength="58.989">первый</text><text x="400.628" y="546.572" fill="#000" font-size="15" textLength="74.663">интервал</text><text x="475.291" y="546.572" fill="#000" font-size="15"> </text><text x="480.059" y="546.572" fill="#000" font-size="15" textLength="16.143">Δt</text><text x="496.202" y="546.572" fill="#000" font-size="15"> </text><text x="500.97" y="546.572" fill="#000" font-size="15" textLength="18.984">по</text><text x="519.954" y="546.572" fill="#000" font-size="15"> </text><text x="524.722" y="546.572" fill="#000" font-size="15" textLength="54.089">закону</text><text x="400.628" y="564.033" fill="#000" font-size="15" textLength="30.381">ИЗ1</text><line x1="384.628" y1="54.57" x2="384.628" y2="1439.23" style="stroke:#000;stroke-width:1.5;"/><rect x="675.508" y="597.57" width="145.588" height="89.844" fill="#F1F1F1" style="stroke:#181818;stroke-width:0.5;" rx="12.5" ry="12.5"/><text x="685.508" y="621.494" fill="#000" font-size="15" textLength="121.26">Запланировать</text><text x="685.508" y="638.955" fill="#000" font-size="15" textLength="58.989">первый</text><text x="685.508" y="656.416" fill="#000" font-size="15" textLength="125.588">ORDER_ARRIVAL</text><text x="685.508" y="673.876" fill="#000" font-size="15" textLength="18.999">на</text><text x="704.507" y="673.876" fill="#000" font-size="15"> </text><text x="709.275" y="673.876" fill="#000" font-size="15" textLength="47.93">время</text><text x="757.205" y="673.876" fill="#000" font-size="15"> </text><text x="761.973" y="673.876" fill="#000" font-size="15">t</text><text x="767.854" y="673.876" fill="#000" font-size="15"> </text><text x="772.623" y="673.876" fill="#000" font-size="15">+</text><text x="785.191" y="673.876" fill="#000" font-size="15"> </text><text x="789.959" y="673.876" fill="#000" font-size="15" textLength="16.143">Δt</text><rect x="657.029" y="767.766" width="182.546" height="54.922" fill="#F1F1F1" style="stroke:#181818;stroke-width:0.5;" rx="12.5" ry="12.5"/><text x="667.029" y="791.689" fill="#000" font-size="15" textLength="64.556">Извлечь</text><text x="731.585" y="791.689" fill="#000" font-size="15"> </text><text x="736.353" y="791.689" fill="#000" font-size="15" textLength="93.223">ближайшее</text><text x="667.029" y="809.15" fill="#000" font-size="15" textLength="66.233">событие</text><polygon points="669.007,707.414,827.598,707.414,839.598,719.414,827.598,731.414,669.007,731.414,657.007,719.414,669.007,707.414" fill="#F1F1F1" style="stroke:#181818;stroke-width:0.5;stroke-linejoin:miter;stroke-miterlimit:10;"/><text x="752.302" y="746.266" fill="#000" font-size="16" textLength="22.305">Да</text><text x="669.007" y="724.607" fill="#000" font-size="15" textLength="158.591">Календарь не пуст?</text><text x="625.812" y="715.641" fill="#000" font-size="16" textLength="31.195">Нет</text><line x1="592.812" y1="54.57" x2="592.812" y2="1439.23" style="stroke:#000;stroke-width:1.5;"/><path d="M1060.208,1012.996 L1060.208,1032.621 L1040.208,1036.621 L1060.208,1040.621 L1060.208,1060.246 A0,0 0 0 0 1060.208,1060.246 L1258.067,1060.246 A0,0 0 0 0 1258.067,1060.246 L1258.067,1022.996 L1248.067,1012.996 L1060.208,1012.996 A0,0 0 0 0 1060.208,1012.996" style="stroke:#181818;stroke-width:0.5;" fill="#FEFFDD"/><path d="M1248.067,1012.996 L1248.067,1022.996 L1258.067,1022.996 L1248.067,1012.996" style="stroke:#181818;stroke-width:0.5;" fill="#FEFFDD"/><text x="1066.208" y="1032.848" fill="#000" font-size="16" textLength="91.016">Детальная</text><text x="1157.223" y="1032.848" fill="#000" font-size="16"> </text><text x="1162.309" y="1032.848" fill="#000" font-size="16" textLength="55.375">схема:</text><text x="1066.208" y="1051.473" fill="#000" font-size="16" textLength="176.859">flowchart-arrival.puml</text><rect x="860.598" y="1009.16" width="179.609" height="54.922" fill="#F1F1F1" style="stroke:#181818;stroke-width:0.5;" rx="12.5" ry="12.5"/><text x="870.598" y="1033.083" fill="#000" font-size="15" textLength="93.706">Обработать</text><text x="870.598" y="1050.544" fill="#000" font-size="15" textLength="102.253">поступление</text><text x="972.852" y="1050.544" fill="#000" font-size="15"> </text><text x="977.62" y="1050.544" fill="#000" font-size="15" textLength="52.588">заказа</text><path d="M1423.079,1021.727 L1423.079,1041.352 L1403.079,1045.352 L1423.079,1049.352 L1423.079,1068.977 A0,0 0 0 0 1423.079,1068.977 L1659.079,1068.977 A0,0 0 0 0 1659.079,1068.977 L1659.079,1031.727 L1649.079,1021.727 L1423.079,1021.727 A0,0 0 0 0 1423.079,1021.727" style="stroke:#181818;stroke-width:0.5;" fill="#FEFFDD"/><path d="M1649.079,1021.727 L1649.079,1031.727 L1659.079,1031.727 L1649.079,1021.727" style="stroke:#181818;stroke-width:0.5;" fill="#FEFFDD"/><text x="1429.079" y="1041.578" fill="#000" font-size="16" textLength="91.016">Детальная</text><text x="1520.095" y="1041.578" fill="#000" font-size="16"> </text><text x="1525.181" y="1041.578" fill="#000" font-size="16" textLength="55.375">схема:</text><text x="1429.079" y="1060.203" fill="#000" font-size="16" textLength="215">flowchart-completion.puml</text><rect x="1268.067" y="1009.16" width="135.012" height="72.383" fill="#F1F1F1" style="stroke:#181818;stroke-width:0.5;" rx="12.5" ry="12.5"/><text x="1278.067" y="1033.083" fill="#000" font-size="15" textLength="93.706">Обработать</text><text x="1278.067" y="1050.544" fill="#000" font-size="15" textLength="96.497">завершение</text><text x="1278.067" y="1068.005" fill="#000" font-size="15" textLength="115.012">обслуживания</text><line x1="854.598" y1="54.57" x2="854.598" y2="1439.23" style="stroke:#000;stroke-width:1.5;"/><rect x="1672.848" y="1157.543" width="177.441" height="54.922" fill="#F1F1F1" style="stroke:#181818;stroke-width:0.5;" rx="12.5" ry="12.5"/><text x="1682.848" y="1181.466" fill="#000" font-size="15" textLength="88.85">Рассчитать</text><text x="1682.848" y="1198.927" fill="#000" font-size="15" textLength="99.338">вероятность</text><text x="1782.186" y="1198.927" fill="#000" font-size="15"> </text><text x="1786.954" y="1198.927" fill="#000" font-size="15" textLength="53.335">отказа</text><rect x="1671.943" y="1232.465" width="179.25" height="89.844" fill="#F1F1F1" style="stroke:#181818;stroke-width:0.5;" rx="12.5" ry="12.5"/><text x="1681.943" y="1256.388" fill="#000" font-size="15" textLength="88.85">Рассчитать</text><text x="1770.793" y="1256.388" fill="#000" font-size="15"> </text><text x="1775.561" y="1256.388" fill="#000" font-size="15" textLength="65.632">среднее</text><text x="1681.943" y="1273.849" fill="#000" font-size="15" textLength="47.93">время</text><text x="1729.873" y="1273.849" fill="#000" font-size="15"> </text><text x="1734.641" y="1273.849" fill="#000" font-size="15" textLength="85.349">ожидания,</text><text x="1681.943" y="1291.31" fill="#000" font-size="15" textLength="115.012">обслуживания</text><text x="1796.955" y="1291.31" fill="#000" font-size="15"> </text><text x="1801.723" y="1291.31" fill="#000" font-size="15">и</text><text x="1681.943" y="1308.771" fill="#000" font-size="15" textLength="96.262">пребывания</text><rect x="1670.079" y="1342.309" width="182.979" height="54.922" fill="#F1F1F1" style="stroke:#181818;stroke-width:0.5;" rx="12.5" ry="12.5"/><text x="1680.079" y="1366.232" fill="#000" font-size="15" textLength="88.85">Рассчитать</text><text x="1768.929" y="1366.232" fill="#000" font-size="15"> </text><text x="1773.697" y="1366.232" fill="#000" font-size="15" textLength="69.36">загрузку</text><text x="1680.079" y="1383.693" fill="#000" font-size="15" textLength="72.605">серверов</text><line x1="1664.079" y1="54.57" x2="1664.079" y2="1439.23" style="stroke:#000;stroke-width:1.5;"/><line x1="1857.058" y1="54.57" x2="1857.058" y2="1439.23" style="stroke:#000;stroke-width:1.5;"/><polygon points="1277.394,923.488,1281.394,913.488,1285.394,923.488,1281.394,919.488" fill="#181818" style="stroke:#181818;stroke-width:1;stroke-linejoin:miter;stroke-miterlimit:10;"/><line x1="126.08" y1="98.195" x2="126.08" y2="118.195" style="stroke:#181818;stroke-width:1;"/><polygon points="122.08,108.195,126.08,118.195,130.08,108.195,126.08,112.195" fill="#181818" style="stroke:#181818;stroke-width:1;stroke-linejoin:miter;stroke-miterlimit:10;"/><line x1="126.08" y1="190.578" x2="126.08" y2="210.578" style="stroke:#181818;stroke-width:1;"/><polygon points="122.08,200.578,126.08,210.578,130.08,200.578,126.08,204.578" fill="#181818" style="stroke:#181818;stroke-width:1;stroke-linejoin:miter;stroke-miterlimit:10;"/><line x1="126.08" y1="932.531" x2="126.08" y2="954.238" style="stroke:#181818;stroke-width:1;"/><polygon points="122.08,944.238,126.08,954.238,130.08,944.238,126.08,948.238" fill="#181818" style="stroke:#181818;stroke-width:1;stroke-linejoin:miter;stroke-miterlimit:10;"/><line x1="489.72" y1="392.805" x2="489.72" y2="412.805" style="stroke:#181818;stroke-width:1;"/><polygon points="485.72,402.805,489.72,412.805,493.72,402.805,489.72,406.805" fill="#181818" style="stroke:#181818;stroke-width:1;stroke-linejoin:miter;stroke-miterlimit:10;"/><line x1="489.72" y1="450.266" x2="489.72" y2="470.266" style="stroke:#181818;stroke-width:1;"/><polygon points="485.72,460.266,489.72,470.266,493.72,460.266,489.72,464.266" fill="#181818" style="stroke:#181818;stroke-width:1;stroke-linejoin:miter;stroke-miterlimit:10;"/><line x1="748.302" y1="731.414" x2="748.302" y2="767.766" style="stroke:#181818;stroke-width:1;"/><polygon points="744.302,757.766,748.302,767.766,752.302,757.766,748.302,761.766" fill="#181818" style="stroke:#181818;stroke-width:1;stroke-linejoin:miter;stroke-miterlimit:10;"/><line x1="657.007" y1="719.414" x2="611.812" y2="719.414" style="stroke:#181818;stroke-width:1;"/><polygon points="607.812,924.238,611.812,934.238,615.812,924.238,611.812,928.238" fill="#181818" style="stroke:#181818;stroke-width:1;stroke-linejoin:miter;stroke-miterlimit:10;"/><line x1="611.812" y1="719.414" x2="611.812" y2="1142.543" style="stroke:#181818;stroke-width:1;"/><line x1="611.812" y1="1142.543" x2="1761.568" y2="1142.543" style="stroke:#181818;stroke-width:1;"/><line x1="1761.568" y1="1142.543" x2="1761.568" y2="1157.543" style="stroke:#181818;stroke-width:1;"/><polygon points="1757.568,1147.543,1761.568,1157.543,1765.568,1147.543,1761.568,1151.543" fill="#181818" style="stroke:#181818;stroke-width:1;stroke-linejoin:miter;stroke-miterlimit:10;"/><line x1="748.302" y1="687.414" x2="748.302" y2="707.414" style="stroke:#181818;stroke-width:1;"/><polygon points="744.302,697.414,748.302,707.414,752.302,697.414,748.302,701.414" fill="#181818" style="stroke:#181818;stroke-width:1;stroke-linejoin:miter;stroke-miterlimit:10;"/><line x1="1761.568" y1="1212.465" x2="1761.568" y2="1232.465" style="stroke:#181818;stroke-width:1;"/><polygon points="1757.568,1222.465,1761.568,1232.465,1765.568,1222.465,1761.568,1226.465" fill="#181818" style="stroke:#181818;stroke-width:1;stroke-linejoin:miter;stroke-miterlimit:10;"/><line x1="1761.568" y1="1322.309" x2="1761.568" y2="1342.309" style="stroke:#181818;stroke-width:1;"/><polygon points="1757.568,1332.309,1761.568,1342.309,1765.568,1332.309,1761.568,1336.309" fill="#181818" style="stroke:#181818;stroke-width:1;stroke-linejoin:miter;stroke-miterlimit:10;"/><line x1="126.08" y1="282.961" x2="126.08" y2="287.961" style="stroke:#181818;stroke-width:1;"/><line x1="126.08" y1="287.961" x2="489.72" y2="287.961" style="stroke:#181818;stroke-width:1;"/><line x1="489.72" y1="287.961" x2="489.72" y2="302.961" style="stroke:#181818;stroke-width:1;"/><polygon points="485.72,292.961,489.72,302.961,493.72,292.961,489.72,296.961" fill="#181818" style="stroke:#181818;stroke-width:1;stroke-linejoin:miter;stroke-miterlimit:10;"/><line x1="489.72" y1="577.57" x2="489.72" y2="582.57" style="stroke:#181818;stroke-width:1;"/><line x1="489.72" y1="582.57" x2="748.302" y2="582.57" style="stroke:#181818;stroke-width:1;"/><line x1="748.302" y1="582.57" x2="748.302" y2="597.57" style="stroke:#181818;stroke-width:1;"/><polygon points="744.302,587.57,748.302,597.57,752.302,587.57,748.302,591.57" fill="#181818" style="stroke:#181818;stroke-width:1;stroke-linejoin:miter;stroke-miterlimit:10;"/><line x1="748.302" y1="822.688" x2="748.302" y2="827.688" style="stroke:#181818;stroke-width:1;"/><line x1="748.302" y1="827.688" x2="126.08" y2="827.688" style="stroke:#181818;stroke-width:1;"/><line x1="126.08" y1="827.688" x2="126.08" y2="842.688" style="stroke:#181818;stroke-width:1;"/><polygon points="122.08,832.688,126.08,842.688,130.08,832.688,126.08,836.688" fill="#181818" style="stroke:#181818;stroke-width:1;stroke-linejoin:miter;stroke-miterlimit:10;"/><line x1="47.305" y1="971.699" x2="35.305" y2="971.699" style="stroke:#181818;stroke-width:1;"/><line x1="35.305" y1="971.699" x2="35.305" y2="997.891" style="stroke:#181818;stroke-width:1;"/><line x1="35.305" y1="997.891" x2="950.403" y2="997.891" style="stroke:#181818;stroke-width:1;"/><line x1="950.403" y1="997.891" x2="950.403" y2="1009.16" style="stroke:#181818;stroke-width:1;"/><polygon points="946.403,999.16,950.403,1009.16,954.403,999.16,950.403,1003.16" fill="#181818" style="stroke:#181818;stroke-width:1;stroke-linejoin:miter;stroke-miterlimit:10;"/><line x1="204.854" y1="971.699" x2="1335.573" y2="971.699" style="stroke:#181818;stroke-width:1;"/><line x1="1335.573" y1="971.699" x2="1335.573" y2="1009.16" style="stroke:#181818;stroke-width:1;"/><polygon points="1331.573,999.16,1335.573,1009.16,1339.573,999.16,1335.573,1003.16" fill="#181818" style="stroke:#181818;stroke-width:1;stroke-linejoin:miter;stroke-miterlimit:10;"/><line x1="950.403" y1="1064.082" x2="950.403" y2="1085.543" style="stroke:#181818;stroke-width:1;"/><line x1="950.403" y1="1085.543" x2="96.08" y2="1085.543" style="stroke:#181818;stroke-width:1;"/><line x1="96.08" y1="1085.543" x2="96.08" y2="1103.543" style="stroke:#181818;stroke-width:1;"/><line x1="96.08" y1="1103.543" x2="114.08" y2="1103.543" style="stroke:#181818;stroke-width:1;"/><polygon points="104.08,1099.543,114.08,1103.543,104.08,1107.543,108.08,1103.543" fill="#181818" style="stroke:#181818;stroke-width:1;stroke-linejoin:miter;stroke-miterlimit:10;"/><line x1="1335.573" y1="1081.543" x2="1335.573" y2="1103.543" style="stroke:#181818;stroke-width:1;"/><line x1="1335.573" y1="1103.543" x2="138.08" y2="1103.543" style="stroke:#181818;stroke-width:1;"/><polygon points="148.08,1099.543,138.08,1103.543,148.08,1107.543,144.08,1103.543" fill="#181818" style="stroke:#181818;stroke-width:1;stroke-linejoin:miter;stroke-miterlimit:10;"/><line x1="126.08" y1="1115.543" x2="126.08" y2="1125.543" style="stroke:#181818;stroke-width:1;"/><line x1="126.08" y1="1125.543" x2="1281.394" y2="1125.543" style="stroke:#181818;stroke-width:1;"/><line x1="1281.394" y1="719.414" x2="1281.394" y2="1125.543" style="stroke:#181818;stroke-width:1;"/><line x1="1281.394" y1="719.414" x2="839.598" y2="719.414" style="stroke:#181818;stroke-width:1;"/><polygon points="849.598,715.414,839.598,719.414,849.598,723.414,845.598,719.414" fill="#181818" style="stroke:#181818;stroke-width:1;stroke-linejoin:miter;stroke-miterlimit:10;"/><line x1="1761.568" y1="1397.23" x2="1761.568" y2="1402.23" style="stroke:#181818;stroke-width:1;"/><line x1="1761.568" y1="1402.23" x2="126.08" y2="1402.23" style="stroke:#181818;stroke-width:1;"/><line x1="126.08" y1="1402.23" x2="126.08" y2="1417.23" style="stroke:#181818;stroke-width:1;"/><polygon points="122.08,1407.23,126.08,1417.23,130.08,1407.23,126.08,1411.23" fill="#181818" style="stroke:#181818;stroke-width:1;stroke-linejoin:miter;stroke-miterlimit:10;"/><text x="132.283" y="69.422" fill="#000" font-size="16" textLength="140.063">SimulationEngine</text><text x="414.298" y="69.422" fill="#000" font-size="16" textLength="148.844">Компоненты СМО</text><text x="664.814" y="69.422" fill="#000" font-size="16" textLength="117.781">EventCalendar</text><text x="1186.307" y="69.422" fill="#000" font-size="16" textLength="146.063">Диспетчеры СМО</text><text x="1711.568" y="69.422" fill="#000" font-size="16" textLength="98">Статистика</text><?plantuml-src hLJTQXD16BtVfvXBYxMq5ugaY9GsGg5QIQHUbYNPD8ERtR2PD2YvQ1fh2Ydqma95j5XzWKsQDLkRRDv0Pjx8yyqcJL9JGPImczcPx--SxymdkB0jjhJ0v7jv9NtPbdtLb9SCoojv8IEr9qErBtjCzcGaEpB0TeZD29Q-x6DzpEIv_2JF3AFqYZj5qpCBB6lbpB8jdhYEIFCtYFzWuj3C2BxBnUlnwVs9qufd5b_ohCYpfOUB4_kbl9brAzpPOJdJBbc6KKtpGjas1NUTfBF37Qjgb8Jf2ICXlwaQQgRog4pKhuucwbT7-Y1WiWqWWUm1Wc2FsE8oN4_Xrf5-x0AeS8C_UyP0HW2_G1Eof-hQiQaEcEp2vGUUBcLRHc7o8rOzES2xJqu8rXoIL4MAS-ntnqb2NMoa6iGc0eNp3E-8wbJluDx66lregRfwI-dd3LNJPRJfJP53XcW8Wum1OZRYVK9p9bj8NzSzesGnBtZYf4Ydwh3RzBAMbtRBNiPAm6OQQjpgkDP1d9WKOi0Ro8QLG2tivuaWYsZ4I4IfcVmWJvU8bUIkvOXLqxQShEbLXrGFjEZwVyZ3DbDhoTJsIYgrlhMoOS3MdsxSNKgC19KyXvBlW7oIBW4WYlSeN9-QFG210FruZl4Ip4waFsSmba1zNII6XsgGRKjt_Jk2NAf3X0c8a0ZqDpLX0J8nDaDx5EglTMTWCRfplUjzNNmubLSTwxmyXyg_eep1ZLF8Tuede1HvondZHCrO_YQIQrcIXTQBhgW5FUwFcn4HBiXeC2Gs911ZsVlBsjrnXSKylfCN-fCn90mq7p5q7sKYq866w2U6HZdRhMJokBVtJC_ZkwQzK2mNR7q8fUYW-B1mvTcTT3ArjRwQt5xTVFfy8_aYkVQFoBgQV38_7ECYLciekGuHXECfztymPjn2qRP8DxDXEbcUqmAxSLlmDzBtPqeuHsFc_EPbbZxTgo_OhE7Nq9Dx25N31FPZRFM73SKsaN7TnDck-2HLTlGicngQe8eewemecZTk8q_Fg85sX6GdIRsbNEhCXHwpNPfHR7BaZSRihFdl5dy1?></g></svg>